<svg width="263" height="35" viewBox="0 0 263 35" fill="none" xmlns="http://www.w3.org/2000/svg">
<g clip-path="url(#clip0_39_2)">
<path d="M7.32974 25.9716C5.27131 25.2002 3.4337 23.9305 1.97967 22.2749C0.721625 20.887 0.0168284 19.0815 0 17.2038C0.00744501 15.3101 0.712723 13.4864 1.97967 12.0852C3.4337 10.4296 5.27131 9.15988 7.32974 8.38851C9.68451 7.45194 12.1981 6.98523 14.7303 7.01421C16.8217 7.00388 18.9029 7.30724 20.9052 7.91455C22.6747 8.45712 24.3289 9.32491 25.7839 10.4738L26.1373 7.65392H29.4369V26.7534H26.1845L25.8781 23.8388C24.4143 25.0011 22.7421 25.87 20.9524 26.3981C18.9539 27.0249 16.8707 27.3366 14.7773 27.3221C12.2318 27.3535 9.70392 26.8951 7.32974 25.9716ZM5.25571 20.6634C6.39946 21.7551 7.77884 22.5661 9.28596 23.033C11.0417 23.6193 12.8803 23.9154 14.7303 23.9098C16.5881 23.9171 18.4348 23.621 20.1982 23.033C21.7053 22.5661 23.0845 21.7551 24.2283 20.6634C24.7045 20.212 25.0857 19.669 25.3489 19.0665C25.612 18.464 25.7519 17.8143 25.7603 17.1563C25.7584 16.5007 25.6213 15.8527 25.3576 15.2531C25.0939 14.6535 24.7094 14.1155 24.2283 13.673C23.0898 12.5742 21.7088 11.7622 20.1982 11.3033C18.4334 10.7234 16.5868 10.4352 14.7303 10.4501C12.8816 10.4369 11.043 10.7251 9.28596 11.3033C7.77531 11.7622 6.39417 12.5742 5.25571 13.673C4.77462 14.1155 4.39003 14.6535 4.12634 15.2531C3.86265 15.8527 3.72555 16.5007 3.72371 17.1563C3.73203 17.8143 3.87208 18.464 4.13526 19.0665C4.39845 19.669 4.77944 20.212 5.25571 20.6634Z" fill="black"/>
<path d="M42.6824 26.3507C40.8835 25.8277 39.2027 24.9585 37.7331 23.7915L37.4267 26.7062H34.1271V-0.0236816H37.9687V10.4029C39.4507 9.27489 41.118 8.41671 42.8946 7.86735C44.8816 7.26367 46.9467 6.96018 49.0223 6.96687C51.5469 6.93733 54.0528 7.40426 56.3993 8.34132C58.4577 9.11268 60.2953 10.3824 61.7493 12.038C63.0163 13.4392 63.7216 15.2628 63.729 17.1564C63.7122 19.0341 63.0074 20.8397 61.7493 22.2275C60.2953 23.8832 58.4577 25.1528 56.3993 25.9242C54.048 26.8417 51.5443 27.3001 49.0223 27.2749C46.8737 27.3067 44.7336 26.9948 42.6824 26.3507ZM39.3593 20.6162C40.5083 21.7131 41.8965 22.5246 43.413 22.9858C45.1678 23.5758 47.0071 23.872 48.8573 23.8626C50.7076 23.872 52.5468 23.5758 54.3016 22.9858C55.8182 22.5246 57.2065 21.7131 58.3555 20.6162C58.8285 20.1636 59.206 19.6197 59.4651 19.0171C59.7243 18.4145 59.8598 17.7655 59.8637 17.109C59.8649 16.4551 59.7315 15.8081 59.4719 15.2086C59.2123 14.6092 58.8323 14.0702 58.3555 13.6256C57.2119 12.5214 55.8218 11.7089 54.3016 11.256C52.5455 10.674 50.7063 10.3859 48.8573 10.4029C47.0084 10.3859 45.1692 10.674 43.413 11.256C41.8929 11.7089 40.5029 12.5214 39.3593 13.6256C38.8825 14.0702 38.5024 14.6092 38.2428 15.2086C37.9832 15.8081 37.8498 16.4551 37.8509 17.109C37.8575 17.7787 38.0012 18.4399 38.2728 19.0514C38.5445 19.6629 38.9383 20.2116 39.43 20.6635L39.3593 20.6162Z" fill="black"/>
<path d="M73.8163 25.9717C71.771 25.1994 69.9431 23.9388 68.4898 22.2986C67.2333 20.9192 66.5282 19.1216 66.51 17.2512C66.5541 15.3426 67.3016 13.5186 68.6076 12.1328C70.0656 10.4924 71.8916 9.22514 73.9341 8.43611C76.2718 7.49736 78.7704 7.03031 81.2875 7.06166C83.8095 7.03648 86.3131 7.49491 88.6644 8.41239C90.7228 9.18375 92.5604 10.4534 94.0145 12.1091C95.2725 13.4969 95.9773 15.3025 95.9941 17.1802C96.0127 17.7929 95.9573 18.4056 95.8291 19.0049H70.7995C71.7243 20.59 73.152 21.8167 74.8533 22.4882C76.8749 23.4058 79.0694 23.8746 81.2875 23.8627C83.1292 23.8522 84.9608 23.5891 86.7318 23.0806C88.3024 22.6788 89.7823 21.9791 91.0919 21.019L94.3207 22.9622C92.7116 24.4145 90.7928 25.4765 88.7116 26.0664C86.3143 26.8515 83.8087 27.2514 81.2875 27.2513C78.738 27.3167 76.2004 26.8821 73.8163 25.9717ZM91.7282 15.4029C90.8372 13.7881 89.4109 12.5387 87.698 11.8722C85.6493 10.933 83.4212 10.4558 81.1696 10.474C78.9364 10.4619 76.7265 10.9306 74.6883 11.8484C72.9795 12.5218 71.5554 13.7695 70.6581 15.3792L91.7282 15.4029Z" fill="black"/>
<path d="M99.9301 0.0236816H103.725V26.7535H99.9301V0.0236816Z" fill="black"/>
<path d="M113.788 26.3507C111.703 25.8376 109.697 25.0403 107.826 23.981L110.842 21.2796C112.338 22.0016 113.924 22.5197 115.556 22.8199C117.929 23.3007 120.347 23.5231 122.768 23.4833C124.215 23.4766 125.658 23.3418 127.081 23.0805C128.47 22.8508 129.834 22.4939 131.158 22.0142C132.266 21.6113 132.832 21.1611 132.832 20.7109C132.832 20.2606 131.889 19.5497 130.051 19.2417C127.641 18.8795 125.204 18.7209 122.768 18.7677C119.08 18.8558 115.398 18.417 111.832 17.4644C108.981 16.5877 107.566 15.0947 107.566 12.9857C107.566 10.8767 108.957 9.38387 111.714 8.43601C115.202 7.40989 118.829 6.9381 122.462 7.03784C125.302 6.94615 128.141 7.24918 130.899 7.93832C132.755 8.45017 134.52 9.24964 136.131 10.308L133.774 13.1753C132.33 12.237 130.735 11.5557 129.061 11.1612C127.011 10.6996 124.916 10.469 122.815 10.4739C120.301 10.4588 117.791 10.689 115.32 11.1612C112.964 11.6114 111.714 12.2512 111.714 13.0569C111.714 13.8626 113.011 14.4076 115.627 14.7157C118.011 15.025 120.411 15.1832 122.815 15.1895C126.42 15.027 130.025 15.5002 133.468 16.5877C135.825 17.5355 137.003 18.9573 137.003 20.8056C136.981 21.4716 136.8 22.1226 136.476 22.7039C136.152 23.2852 135.695 23.78 135.141 24.1469C133.634 25.297 131.898 26.1054 130.051 26.5166C127.682 27.0909 125.252 27.3694 122.815 27.3459C119.776 27.4057 116.742 27.0712 113.788 26.3507Z" fill="black"/>
<path d="M200.591 12.1326C199.137 10.4663 197.289 9.19495 195.217 8.43597C192.884 7.51014 190.396 7.04351 187.887 7.06152C185.361 7.03768 182.855 7.51276 180.51 8.45969C178.459 9.23187 176.629 10.5017 175.184 12.1564C174.628 12.8055 174.168 13.5317 173.817 14.3127L174.878 15.3316C176.268 16.7061 177.517 17.9857 178.837 19.0758H198.069C199.559 17.9601 200.968 16.7408 202.288 15.4265C202.008 14.2021 201.424 13.069 200.591 12.1326ZM177.329 15.3791C178.243 13.7738 179.672 12.5288 181.383 11.8483C183.428 10.9285 185.646 10.4598 187.887 10.4739C190.131 10.456 192.352 10.9333 194.392 11.872C196.11 12.5315 197.538 13.7828 198.422 15.4028L177.329 15.3791Z" fill="black"/>
<path d="M209.264 7.63025H205.847V11.8958C206.973 10.831 208.187 9.8638 209.476 9.0047L209.264 7.63025ZM207.85 18.8152L205.847 20.7583V26.7298H209.665V17.7013C209.64 17.465 209.64 17.2268 209.665 16.9905L207.85 18.8152Z" fill="black"/>
<path d="M234.411 20.5212C234.701 21.1586 235.082 21.7496 235.543 22.2749C236.008 22.8256 236.53 23.3258 237.098 23.7677C236.076 22.7982 235.174 21.7081 234.411 20.5212Z" fill="black"/>
<path d="M263 17.1801V24.8815C262.968 26.7562 262.265 28.5566 261.02 29.9526C259.571 31.6135 257.732 32.8841 255.67 33.6493C253.333 34.5576 250.846 35.0158 248.341 35C245.54 35.0568 242.758 34.5408 240.162 33.4834C238.07 32.651 236.157 31.4199 234.529 29.8578L236.886 27.7724C238.262 28.9859 239.865 29.9123 241.6 30.4976C243.747 31.2662 246.014 31.6433 248.293 31.6113C250.144 31.6282 251.985 31.3318 253.738 30.7345C255.259 30.2851 256.65 29.472 257.791 28.3649C258.268 27.9202 258.648 27.3813 258.908 26.7818C259.168 26.1824 259.301 25.5353 259.3 24.8815V23.981C257.819 25.1166 256.152 25.9828 254.374 26.5403C252.627 27.092 250.808 27.3795 248.977 27.3934H247.728C245.373 27.3909 243.04 26.949 240.846 26.0901C239.479 25.5485 238.2 24.8058 237.051 23.8863C236.029 22.9168 235.127 21.8267 234.364 20.6399C233.917 20 233.54 19.3128 233.092 18.6967C231.976 16.6989 230.552 14.8913 228.873 13.3412C228.708 13.2228 228.567 13.0805 228.402 12.9857C226.08 11.4486 223.329 10.7011 220.553 10.8531C218.855 10.8405 217.172 11.1708 215.604 11.8246H215.463C213.894 12.5153 212.44 13.4423 211.149 14.5735C209.853 15.5925 208.628 16.8247 207.284 18.1043C205.001 20.3079 202.576 22.3581 200.025 24.2417C199.672 24.5023 199.247 24.7393 198.847 24.9762C195.397 26.955 191.481 27.962 187.51 27.891C180.44 27.891 175.962 23.4833 171.625 19.1705L170.588 18.128C168.845 16.3557 166.926 14.7677 164.861 13.3887C162.128 11.6368 158.958 10.7 155.717 10.6872C153.968 10.7592 152.235 11.0457 150.555 11.5403C149.043 12.0109 147.656 12.8212 146.501 13.9099C146.029 14.3633 145.653 14.9073 145.394 15.5097C145.134 16.1121 144.998 16.7607 144.993 17.417C144.988 18.0748 145.12 18.7264 145.38 19.3302C145.64 19.934 146.022 20.4769 146.501 20.9242C147.651 22.0197 149.039 22.8311 150.555 23.2939C152.311 23.8758 154.15 24.164 155.999 24.1469C157.848 24.1622 159.687 23.8741 161.444 23.2939C162.957 22.8255 164.344 22.0149 165.497 20.9242C165.976 20.4745 166.358 19.9316 166.622 19.3288C166.885 18.7259 167.024 18.0754 167.029 17.417C167.028 17.1052 166.989 16.7949 166.912 16.4929C168.067 17.4408 169.268 18.5307 170.306 19.6445C169.986 20.7087 169.448 21.6937 168.726 22.5356C167.266 24.184 165.43 25.4523 163.376 26.2322C161.023 27.1399 158.52 27.5903 155.999 27.5592C153.909 27.5773 151.828 27.2818 149.825 26.6825C148.023 26.1374 146.336 25.2616 144.851 24.0995L144.569 26.9905H141.246V0.26062H144.946V10.7109C146.422 9.5739 148.091 8.71486 149.872 8.17538C151.778 7.6483 153.74 7.35394 155.717 7.29861C163.824 7.29861 169.386 11.5876 173.77 15.9241L174.336 16.4929C175.726 17.8673 177.046 19.1706 178.389 20.2843C183.103 24.0758 185.153 24.0758 187.534 24.0758C192.279 24.1867 196.891 22.4943 200.449 19.3364C201.274 18.6729 204.055 16.0663 204.668 15.4976C205.281 14.9288 205.682 14.4786 206.2 14.0047C207.39 12.8235 208.649 11.7157 209.971 10.6872C213.058 8.29481 216.845 6.9952 220.742 6.99054C224.808 6.75531 228.811 8.08557 231.937 10.7109C232.99 11.6752 233.931 12.7563 234.741 13.9337C235.378 14.8104 235.991 15.7346 236.556 16.6351C237.122 17.5356 237.287 17.7962 237.664 18.3412C238.877 20.4804 240.722 22.1866 242.943 23.2227L243.415 23.4123L244.381 23.6967C244.816 23.8088 245.256 23.8958 245.701 23.9573L246.832 24.0758H247.398C247.601 24.1001 247.807 24.1001 248.011 24.0758H249.26C250.864 24.0395 252.453 23.7599 253.973 23.2464C255.489 22.7836 256.877 21.9723 258.027 20.8768C258.506 20.4271 258.888 19.8844 259.151 19.2815C259.415 18.6786 259.553 18.0282 259.559 17.3697C259.548 16.7121 259.407 16.0633 259.144 15.4611C258.881 14.859 258.501 14.3155 258.027 13.8625C256.872 12.7738 255.486 11.9635 253.973 11.4928C252.217 10.9126 250.378 10.6244 248.529 10.6398C246.68 10.6244 244.841 10.9126 243.085 11.4928C241.572 11.9635 240.186 12.7738 239.031 13.8625C238.388 14.5192 237.932 15.3376 237.711 16.2322C237.711 16.2322 237.711 16.0663 237.546 15.9953C236.886 14.9763 236.226 13.9099 235.425 12.8436C235.425 12.6777 235.661 12.5592 235.779 12.3933C237.24 10.7398 239.074 9.46379 241.128 8.67291C243.483 7.73973 245.998 7.28078 248.529 7.32219C251.052 7.28511 253.558 7.74396 255.906 8.67291C257.96 9.46379 259.795 10.7398 261.256 12.3933C262.356 13.7464 262.97 15.4327 263 17.1801Z" fill="black"/>
</g>
<defs>
<clipPath id="clip0_39_2">
<rect width="263" height="35" fill="white"/>
</clipPath>
</defs>
</svg>
